<svg id="Capa_1" data-name="Capa 1" xmlns="http://www.w3.org/2000/svg" viewBox="0 0 1091.86 366"><defs><style>.cls-1{fill:#1a1a1a;}.cls-2{fill:#333;}.cls-3{fill:#4d4d4d;}.cls-4{fill:#666;}.cls-5{fill:gray;}.cls-6{fill:#999;}.cls-7{fill:#b3b3b3;}</style></defs><title>logo</title><path d="M336,271V549H98V271H336m30-30H68V579H366V241Z" transform="translate(-40 -213)"/><path class="cls-1" d="M322,257V535H84V257H322m30-30H54V565H352V227Z" transform="translate(-40 -213)"/><path class="cls-2" d="M308,243V521H70V243H308m30-30H40V551H338V213Z" transform="translate(-40 -213)"/><path class="cls-3" d="M265,367V476H176V367h89m30-30H146V506H295V337Z" transform="translate(-40 -213)"/><path class="cls-4" d="M251,353V462H162V353h89m30-30H132V492H281V323Z" transform="translate(-40 -213)"/><path class="cls-5" d="M237,339V448H148V339h89m30-30H118V478H267V309Z" transform="translate(-40 -213)"/><polygon class="cls-6" points="260.4 63 241 63 241 85 260.4 85 260.4 63 260.4 63"/><polygon class="cls-7" points="256.4 59 237 59 237 81 256.4 81 256.4 59 256.4 59"/><path d="M569.61,424.5c-1.25-23.5-2.75-51.75-2.5-72.75h-.75c-5.75,19.75-12.75,40.75-21.25,64L515.36,497.5h-16.5l-27.25-80.25c-8-23.75-14.75-45.5-19.5-65.5h-.5c-.5,21-1.75,49.25-3.25,74.5l-4.5,72.25H423.11L434.86,330h27.75l28.75,81.5c7,20.75,12.75,39.25,17,56.75h.75c4.25-17,10.25-35.5,17.75-56.75l30-81.5h27.75l10.5,168.5H573.86Z" transform="translate(-40 -213)"/><path d="M653.36,445.5l-17.5,53h-22.5L670.61,330h26.25l57.5,168.5H731.11l-18-53Zm55.25-17L692.11,380c-3.75-11-6.25-21-8.75-30.75h-.5c-2.5,10-5.25,20.25-8.5,30.5l-16.5,48.75Z" transform="translate(-40 -213)"/><path d="M791.86,348.5H740.61V330H865.36v18.5h-51.5v150h-22Z" transform="translate(-40 -213)"/><path d="M884.11,330h90.75v18.25h-69v56h63.75v18H905.86V498.5H884.11Z" transform="translate(-40 -213)"/><path d="M1043.36,498.5V427l-53.25-97h24.75l23.75,46.5c6.5,12.75,11.5,23,16.75,34.75h.5c4.75-11,10.5-22,17-34.75l24.25-46.5h24.75l-56.5,96.75V498.5Z" transform="translate(-40 -213)"/><polygon points="393.11 295.5 383.11 285.5 386.68 277.68 412.61 275.1 409 282.45 393.11 295.5"/><path d="M472.61,340l-10-10-6.13,4.16,4.13,6.45s7.23,4.39,7.62,4.39S472.61,340,472.61,340Z" transform="translate(-40 -213)"/><polygon points="468.86 294.5 458.86 284.5 462.16 281.42 471.71 282.06 471.71 287 468.86 294.5"/><polygon points="543.86 295.5 533.86 285.5 538.86 281.42 548.93 281.42 550.87 289.87 543.86 295.5"/><polygon points="554.61 127 544.61 117 540.42 125.74 544.48 133.68 554.61 127"/><polygon points="583.36 295.5 573.36 285.5 585.32 278.26 595.19 281.42 592.87 288.46 583.36 295.5"/><polygon points="701.11 295.5 691.11 285.5 693.39 279.74 703.71 279.74 709.13 288.46 701.11 295.5"/><polygon points="666.86 127 656.86 117 653.24 123.36 655.97 132 664.23 134.71 666.86 127"/><polygon points="710.61 145.5 700.61 135.5 705.61 128.52 721.77 128.52 720.23 136.25 710.61 145.5"/><polygon points="761.86 295.5 751.86 285.5 758.93 278.26 767.71 279.74 769 291.61 761.86 295.5"/><polygon points="835.36 127 825.36 117 814.93 120.77 821.39 128.52 827.07 137.01 835.36 127"/><polygon points="854.11 295.5 844.11 285.5 852.87 275.36 859.84 278.26 862.16 287.62 854.11 295.5"/><polygon points="939.61 201.25 929.61 191.25 921.77 196.25 926.93 203.1 933.64 207.23 939.61 201.25"/><polygon points="944.86 127 934.86 117 927.71 119.74 930.69 128.52 939.61 134.71 944.86 127"/><polygon points="1013.36 295.5 1003.36 285.5 1010.55 275.36 1017.9 277.1 1018.87 283.48 1013.36 295.5"/><polygon points="984.86 127 974.86 117 970.29 122 972.81 130.97 983.07 134.71 984.86 127"/><polygon points="1091.86 127 1081.86 117 1074.81 120.13 1070.36 129.61 1076.74 134.71 1086.23 131.55 1091.86 127"/><path class="cls-1" d="M579.61,434.5c-1.25-23.5-2.75-51.75-2.5-72.75h-.75c-5.75,19.75-12.75,40.75-21.25,64L525.36,507.5h-16.5l-27.25-80.25c-8-23.75-14.75-45.5-19.5-65.5h-.5c-.5,21-1.75,49.25-3.25,74.5l-4.5,72.25H433.11L444.86,340h27.75l28.75,81.5c7,20.75,12.75,39.25,17,56.75h.75c4.25-17,10.25-35.5,17.75-56.75l30-81.5h27.75l10.5,168.5H583.86Z" transform="translate(-40 -213)"/><path class="cls-1" d="M663.36,455.5l-17.5,53h-22.5L680.61,340h26.25l57.5,168.5H741.11l-18-53Zm55.25-17L702.11,390c-3.75-11-6.25-21-8.75-30.75h-.5c-2.5,10-5.25,20.25-8.5,30.5l-16.5,48.75Z" transform="translate(-40 -213)"/><path class="cls-1" d="M801.86,358.5H750.61V340H875.36v18.5h-51.5v150h-22Z" transform="translate(-40 -213)"/><path class="cls-1" d="M894.11,340h90.75v18.25h-69v56h63.75v18H915.86V508.5H894.11Z" transform="translate(-40 -213)"/><path class="cls-1" d="M1053.36,508.5V437l-53.25-97h24.75l23.75,46.5c6.5,12.75,11.5,23,16.75,34.75h.5c4.75-11,10.5-22,17-34.75l24.25-46.5h24.75l-56.5,96.75V508.5Z" transform="translate(-40 -213)"/></svg>